<svg width="32" height="32" viewBox="0 0 32 32" fill="none" xmlns="http://www.w3.org/2000/svg">
<path d="M14.0719 8.31996L9.56124 3.11329C9.04124 2.51329 8.0879 2.51596 7.4839 3.12129L3.77457 6.83729C2.67057 7.94263 2.35457 9.58396 2.99324 10.9C6.80873 18.7999 13.18 25.1801 21.0746 29.0066C22.3892 29.6453 24.0292 29.3293 25.1332 28.224L28.8772 24.4733C29.4839 23.8666 29.4852 22.908 28.8799 22.388L23.6532 17.9013C23.1066 17.432 22.2572 17.4933 21.7092 18.0426L19.8906 19.864C19.7975 19.9615 19.6749 20.0259 19.5417 20.0471C19.4085 20.0683 19.272 20.0452 19.1532 19.9813C16.1805 18.2694 13.7146 15.8003 12.0066 12.8253C11.9426 12.7063 11.9194 12.5696 11.9406 12.4362C11.9618 12.3027 12.0262 12.1799 12.1239 12.0866L13.9372 10.272C14.4866 9.71996 14.5466 8.86663 14.0719 8.31863V8.31996Z" stroke="black" stroke-width="2" stroke-linecap="round" stroke-linejoin="round"/>
</svg>
