<svg width="78" height="194" viewBox="0 0 78 194" fill="none" xmlns="http://www.w3.org/2000/svg">
<rect x="0.5" y="0.5" width="77" height="193" rx="4.5" stroke="#9747FF" stroke-dasharray="10 5"/>
<circle cx="39" cy="39" r="19" fill="#DB4444"/>
<path d="M39 49C34.03 49 30 46.418 30 42V41.912C30 39.794 31.338 38.1 33.375 37C35.324 35.948 36.476 34.01 36.188 32L35.625 29L37.711 29.795C41.468 31.225 44.597 33.707 46.625 36.861C47.5167 38.2311 47.9941 39.8293 48 41.464V42C48 43.562 47.496 44.895 46.625 45.965" stroke="white" stroke-width="1.5" stroke-linecap="round" stroke-linejoin="round"/>
<path d="M39 49C37.343 49 36 47.567 36 45.8C36 44.4 37.016 43.279 37.91 42.252L39 41L40.09 42.252C40.984 43.28 42 44.4 42 45.8C42 47.567 40.657 49 39 49Z" stroke="white" stroke-width="1.5" stroke-linecap="round" stroke-linejoin="round"/>
<circle cx="39" cy="97" r="19" fill="#DB4444"/>
<path d="M33 105V95C33 93.4087 33.6321 91.8826 34.7574 90.7574C35.8826 89.6321 37.4087 89 39 89C40.5913 89 42.1174 89.6321 43.2426 90.7574C44.3679 91.8826 45 93.4087 45 95V105M29 98.565C29 96.512 31 96 33 96V105C31.9391 105 30.9217 104.579 30.1716 103.828C29.4214 103.078 29 102.061 29 101V98.565ZM49 98.565C49 96.512 47 96 45 96V105C46.0609 105 47.0783 104.579 47.8284 103.828C48.5786 103.078 49 102.061 49 101V98.565Z" stroke="#FAFAFA" stroke-width="1.5" stroke-linecap="round" stroke-linejoin="round"/>
<circle cx="39" cy="155" r="19" fill="#DB4444"/>
<path d="M47.485 146H43.493L43.993 151C43.993 151 44.993 152 46.493 152C47.2805 152.001 48.0411 151.714 48.632 151.194C48.6945 151.136 48.741 151.062 48.7673 150.981C48.7935 150.9 48.7986 150.813 48.782 150.729L48.076 146.5C48.0524 146.36 47.9801 146.233 47.872 146.142C47.7638 146.05 47.6267 146 47.485 146V146Z" stroke="white" stroke-width="1.5"/>
<path d="M43.493 146L43.993 151C43.993 151 42.993 152 41.493 152C39.993 152 38.993 151 38.993 151V146H43.493Z" stroke="white" stroke-width="1.5"/>
<path d="M38.993 146V151C38.993 151 37.993 152 36.493 152C34.993 152 33.993 151 33.993 151L34.493 146H38.993Z" stroke="white" stroke-width="1.5"/>
<path d="M34.493 146H30.502C30.36 146 30.2226 146.05 30.1142 146.142C30.0058 146.234 29.9334 146.361 29.91 146.501L29.205 150.73C29.1885 150.814 29.1937 150.901 29.2199 150.982C29.2461 151.063 29.2926 151.137 29.355 151.195C29.683 151.485 30.416 152.001 31.493 152.001C32.993 152.001 33.993 151.001 33.993 151.001L34.493 146.001V146Z" stroke="white" stroke-width="1.5"/>
<path d="M30 152V162C30 162.53 30.2107 163.039 30.5858 163.414C30.9609 163.789 31.4696 164 32 164H46C46.5304 164 47.0391 163.789 47.4142 163.414C47.7893 163.039 48 162.53 48 162V152" stroke="white" stroke-width="1.5"/>
<path d="M41.833 164V158C41.833 157.47 41.6223 156.961 41.2472 156.586C40.8721 156.211 40.3634 156 39.833 156H37.833C37.3026 156 36.7939 156.211 36.4188 156.586C36.0437 156.961 35.833 157.47 35.833 158V164" stroke="white" stroke-width="1.5" stroke-miterlimit="16"/>
</svg>
