<svg width="475" height="102" viewBox="0 0 475 102" fill="none" xmlns="http://www.w3.org/2000/svg">
<rect width="475" height="102" fill="black"/>
<circle cx="297" cy="37" r="16" fill="white" stroke="#FEFAF1" stroke-width="2"/>
<path d="M296.05 37.364L301 42.314L299.586 43.728L293.222 37.364L299.586 31L301 32.414L296.05 37.364Z" fill="black"/>
<circle cx="251" cy="37" r="17" fill="white"/>
<path d="M247 30C244.791 30 243 31.7396 243 33.8859C243 35.6185 243.7 39.7305 250.59 43.8873C250.714 43.961 250.856 44 251 44C251.144 44 251.286 43.961 251.41 43.8873C258.3 39.7305 259 35.6185 259 33.8859C259 31.7396 257.209 30 255 30C252.791 30 251 32.3551 251 32.3551C251 32.3551 249.209 30 247 30Z" stroke="black" stroke-width="1.5" stroke-linecap="round" stroke-linejoin="round"/>
<circle cx="205" cy="37" r="17" fill="white"/>
<path d="M214.257 35.962C214.731 36.582 214.731 37.419 214.257 38.038C212.764 39.987 209.182 44 205 44C200.818 44 197.236 39.987 195.743 38.038C195.512 37.7411 195.387 37.3759 195.387 37C195.387 36.6241 195.512 36.2589 195.743 35.962C197.236 34.013 200.818 30 205 30C209.182 30 212.764 34.013 214.257 35.962V35.962Z" stroke="black" stroke-width="1.5" stroke-linecap="round" stroke-linejoin="round"/>
<path d="M205 40C206.657 40 208 38.6569 208 37C208 35.3431 206.657 34 205 34C203.343 34 202 35.3431 202 37C202 38.6569 203.343 40 205 40Z" stroke="black" stroke-width="1.5" stroke-linecap="round" stroke-linejoin="round"/>
<circle cx="37" cy="43" r="23" fill="#F5F5F5"/>
<path d="M36 36L29 43L36 50M29 43H45" stroke="black" stroke-width="2" stroke-linecap="round" stroke-linejoin="round"/>
<circle cx="95" cy="43" r="23" fill="#F5F5F5"/>
<path d="M86.5 43H103M103 43L96 36M103 43L96 50" stroke="black" stroke-width="1.5" stroke-linecap="round" stroke-linejoin="round"/>
<circle cx="153" cy="43" r="23" transform="rotate(-90 153 43)" fill="#F5F5F5"/>
<path d="M153 51V35M146 42L153 35L160 42" stroke="black" stroke-width="2" stroke-linecap="round" stroke-linejoin="round"/>
<path d="M339 30H343.5L343 32H339V41H337V32H333V30H337V28.128C337 26.345 337.186 25.698 337.534 25.046C337.875 24.4018 338.402 23.875 339.046 23.534C339.698 23.186 340.345 23 342.128 23C342.65 23 343.108 23.05 343.5 23.15V25H342.128C340.804 25 340.401 25.078 339.99 25.298C339.686 25.46 339.46 25.686 339.298 25.99C339.078 26.401 339 26.804 339 28.128V30Z" fill="white"/>
<g clip-path="url(#clip0_302_5142)">
<path d="M376.121 24.4434C376.998 24.0925 377.959 24.0085 378.884 24.2012C379.808 24.3939 380.656 24.8546 381.319 25.5264L381.349 25.5566H381.391C381.73 25.5543 382.081 25.5974 382.498 25.5381C382.882 25.4835 383.328 25.342 383.915 25.0098C383.609 26.4945 383.432 27.1673 382.765 28.083L382.745 28.1094V28.1426C382.745 31.9414 381.578 34.7564 379.826 36.7393C378.073 38.7234 375.728 39.8816 373.362 40.3535C371.745 40.6761 369.754 40.5731 367.996 40.2109C367.118 40.03 366.301 39.7842 365.62 39.4971C365.037 39.2511 364.56 38.9759 364.229 38.6885C364.661 38.6463 365.412 38.553 366.244 38.3594C367.244 38.1267 368.372 37.749 369.203 37.1406L369.319 37.0557L369.199 36.9766C368.508 36.5207 366.812 35.4984 365.731 33.5166C364.667 31.5637 364.193 28.663 365.914 24.4258C367.579 26.3433 369.273 27.6604 370.995 28.3672C371.576 28.6056 371.942 28.7233 372.231 28.791C372.52 28.8584 372.732 28.8754 372.992 28.9111L373.287 28.9521L373.107 28.7715C373.132 27.8419 373.425 26.9387 373.954 26.1729C374.491 25.3958 375.244 24.7941 376.121 24.4434ZM377.905 25.9014C377.119 25.9012 376.364 26.2099 375.803 26.7607C375.312 27.2427 375.004 27.8763 374.925 28.5537L374.905 28.8467L374.877 30.4209C374.876 30.4914 374.859 30.5613 374.829 30.625C374.799 30.6887 374.756 30.7452 374.702 30.791C374.649 30.8368 374.586 30.8716 374.519 30.8916C374.451 30.9115 374.38 30.9166 374.311 30.9072L372.749 30.6953C370.718 30.4183 368.766 29.4825 366.89 27.9189L366.758 27.8086L366.728 27.9775C366.426 29.6481 366.568 31.0709 367.147 32.3018C367.727 33.532 368.739 34.5607 370.156 35.4521L371.902 36.5498C371.971 36.5932 372.03 36.6529 372.07 36.7236C372.111 36.7944 372.134 36.8744 372.137 36.9561C372.14 37.0377 372.122 37.1189 372.086 37.1924C372.05 37.2658 371.997 37.3299 371.931 37.3779L370.339 38.541L370.115 38.7041L370.392 38.7207C371.345 38.7801 372.253 38.738 373.01 38.5879C375.389 38.1129 377.375 36.9789 378.766 35.2207C380.156 33.4627 380.945 31.0883 380.945 28.1426C380.945 27.997 380.871 27.785 380.744 27.5576C380.614 27.326 380.421 27.0649 380.167 26.8203C379.658 26.3309 378.9 25.9014 377.905 25.9014Z" fill="white" stroke="black" stroke-width="0.2"/>
</g>
<path d="M415 23H405C403.939 23 402.922 23.4214 402.172 24.1716C401.421 24.9217 401 25.9391 401 27V37C401 38.0609 401.421 39.0783 402.172 39.8284C402.922 40.5786 403.939 41 405 41H415C416.061 41 417.078 40.5786 417.828 39.8284C418.579 39.0783 419 38.0609 419 37V27C419 25.9391 418.579 24.9217 417.828 24.1716C417.078 23.4214 416.061 23 415 23Z" stroke="white" stroke-width="1.5" stroke-linejoin="round"/>
<path d="M410 36C411.061 36 412.078 35.5786 412.828 34.8284C413.579 34.0783 414 33.0609 414 32C414 30.9391 413.579 29.9217 412.828 29.1716C412.078 28.4214 411.061 28 410 28C408.939 28 407.922 28.4214 407.172 29.1716C406.421 29.9217 406 30.9391 406 32C406 33.0609 406.421 34.0783 407.172 34.8284C407.922 35.5786 408.939 36 410 36V36Z" stroke="white" stroke-width="1.5" stroke-linejoin="round"/>
<path d="M415.5 27.5C415.765 27.5 416.02 27.3946 416.207 27.2071C416.395 27.0196 416.5 26.7652 416.5 26.5C416.5 26.2348 416.395 25.9804 416.207 25.7929C416.02 25.6054 415.765 25.5 415.5 25.5C415.235 25.5 414.98 25.6054 414.793 25.7929C414.605 25.9804 414.5 26.2348 414.5 26.5C414.5 26.7652 414.605 27.0196 414.793 27.2071C414.98 27.3946 415.235 27.5 415.5 27.5Z" fill="white"/>
<path d="M445.5 29.05C446.417 28.113 447.611 27.5 449 27.5C450.459 27.5 451.858 28.0795 452.889 29.1109C453.921 30.1424 454.5 31.5413 454.5 33V40.5H452.5V33C452.5 32.0717 452.131 31.1815 451.475 30.5251C450.818 29.8687 449.928 29.5 449 29.5C448.072 29.5 447.182 29.8687 446.525 30.5251C445.869 31.1815 445.5 32.0717 445.5 33V40.5H443.5V28H445.5V29.05ZM438.5 26C438.102 26 437.721 25.842 437.439 25.5607C437.158 25.2794 437 24.8978 437 24.5C437 24.1022 437.158 23.7206 437.439 23.4393C437.721 23.158 438.102 23 438.5 23C438.898 23 439.279 23.158 439.561 23.4393C439.842 23.7206 440 24.1022 440 24.5C440 24.8978 439.842 25.2794 439.561 25.5607C439.279 25.842 438.898 26 438.5 26ZM437.5 28H439.5V40.5H437.5V28Z" fill="white"/>
<defs>
<clipPath id="clip0_302_5142">
<rect width="24" height="24" fill="white" transform="translate(362 20)"/>
</clipPath>
</defs>
</svg>
