<svg width="399" height="21" viewBox="0 0 399 21" fill="none" xmlns="http://www.w3.org/2000/svg">
<path opacity="0.5" d="M6.846 12.83H2.59L1.806 15H0.462L3.99 5.298H5.46L8.974 15H7.63L6.846 12.83ZM6.482 11.794L4.718 6.866L2.954 11.794H6.482ZM10.0356 11.15C10.0356 10.3567 10.1943 9.666 10.5116 9.078C10.8289 8.48067 11.2676 8.01867 11.8276 7.692C12.3969 7.36533 13.0456 7.202 13.7736 7.202C14.7163 7.202 15.4909 7.43067 16.0976 7.888C16.7136 8.34533 17.1196 8.98 17.3156 9.792H15.9436C15.8129 9.32533 15.5563 8.95667 15.1736 8.686C14.8003 8.41533 14.3336 8.28 13.7736 8.28C13.0456 8.28 12.4576 8.532 12.0096 9.036C11.5616 9.53067 11.3376 10.2353 11.3376 11.15C11.3376 12.074 11.5616 12.788 12.0096 13.292C12.4576 13.796 13.0456 14.048 13.7736 14.048C14.3336 14.048 14.8003 13.9173 15.1736 13.656C15.5469 13.3947 15.8036 13.0213 15.9436 12.536H17.3156C17.1103 13.32 16.6996 13.95 16.0836 14.426C15.4676 14.8927 14.6976 15.126 13.7736 15.126C13.0456 15.126 12.3969 14.9627 11.8276 14.636C11.2676 14.3093 10.8289 13.8473 10.5116 13.25C10.1943 12.6527 10.0356 11.9527 10.0356 11.15ZM18.5395 11.15C18.5395 10.3567 18.6982 9.666 19.0155 9.078C19.3328 8.48067 19.7715 8.01867 20.3315 7.692C20.9008 7.36533 21.5495 7.202 22.2775 7.202C23.2202 7.202 23.9948 7.43067 24.6015 7.888C25.2175 8.34533 25.6235 8.98 25.8195 9.792H24.4475C24.3168 9.32533 24.0602 8.95667 23.6775 8.686C23.3042 8.41533 22.8375 8.28 22.2775 8.28C21.5495 8.28 20.9615 8.532 20.5135 9.036C20.0655 9.53067 19.8415 10.2353 19.8415 11.15C19.8415 12.074 20.0655 12.788 20.5135 13.292C20.9615 13.796 21.5495 14.048 22.2775 14.048C22.8375 14.048 23.3042 13.9173 23.6775 13.656C24.0508 13.3947 24.3075 13.0213 24.4475 12.536H25.8195C25.6142 13.32 25.2035 13.95 24.5875 14.426C23.9715 14.8927 23.2015 15.126 22.2775 15.126C21.5495 15.126 20.9008 14.9627 20.3315 14.636C19.7715 14.3093 19.3328 13.8473 19.0155 13.25C18.6982 12.6527 18.5395 11.9527 18.5395 11.15ZM30.8654 15.126C30.1467 15.126 29.4934 14.9627 28.9054 14.636C28.3267 14.3093 27.8694 13.8473 27.5334 13.25C27.2067 12.6433 27.0434 11.9433 27.0434 11.15C27.0434 10.366 27.2114 9.67533 27.5474 9.078C27.8927 8.47133 28.3594 8.00933 28.9474 7.692C29.5354 7.36533 30.1934 7.202 30.9214 7.202C31.6494 7.202 32.3074 7.36533 32.8954 7.692C33.4834 8.00933 33.9454 8.46667 34.2814 9.064C34.6267 9.66133 34.7994 10.3567 34.7994 11.15C34.7994 11.9433 34.6221 12.6433 34.2674 13.25C33.9221 13.8473 33.4507 14.3093 32.8534 14.636C32.2561 14.9627 31.5934 15.126 30.8654 15.126ZM30.8654 14.006C31.3227 14.006 31.7521 13.8987 32.1534 13.684C32.5547 13.4693 32.8767 13.1473 33.1194 12.718C33.3714 12.2887 33.4974 11.766 33.4974 11.15C33.4974 10.534 33.3761 10.0113 33.1334 9.582C32.8907 9.15267 32.5734 8.83533 32.1814 8.63C31.7894 8.41533 31.3647 8.308 30.9074 8.308C30.4407 8.308 30.0114 8.41533 29.6194 8.63C29.2367 8.83533 28.9287 9.15267 28.6954 9.582C28.4621 10.0113 28.3454 10.534 28.3454 11.15C28.3454 11.7753 28.4574 12.3027 28.6814 12.732C28.9147 13.1613 29.2227 13.4833 29.6054 13.698C29.9881 13.9033 30.4081 14.006 30.8654 14.006ZM43.2785 7.328V15H42.0045V13.866C41.7618 14.258 41.4212 14.566 40.9825 14.79C40.5532 15.0047 40.0772 15.112 39.5545 15.112C38.9572 15.112 38.4205 14.9907 37.9445 14.748C37.4685 14.496 37.0905 14.1227 36.8105 13.628C36.5398 13.1333 36.4045 12.5313 36.4045 11.822V7.328H37.6645V11.654C37.6645 12.41 37.8558 12.9933 38.2385 13.404C38.6212 13.8053 39.1438 14.006 39.8065 14.006C40.4878 14.006 41.0245 13.796 41.4165 13.376C41.8085 12.956 42.0045 12.3447 42.0045 11.542V7.328H43.2785ZM49.1676 7.188C50.1009 7.188 50.8569 7.47267 51.4356 8.042C52.0142 8.602 52.3036 9.414 52.3036 10.478V15H51.0436V10.66C51.0436 9.89467 50.8522 9.31133 50.4696 8.91C50.0869 8.49933 49.5642 8.294 48.9016 8.294C48.2296 8.294 47.6929 8.504 47.2916 8.924C46.8996 9.344 46.7036 9.95533 46.7036 10.758V15H45.4296V7.328H46.7036V8.42C46.9556 8.028 47.2962 7.72467 47.7256 7.51C48.1642 7.29533 48.6449 7.188 49.1676 7.188ZM55.9386 8.378V12.9C55.9386 13.2733 56.018 13.5393 56.1766 13.698C56.3353 13.8473 56.6106 13.922 57.0026 13.922H57.9406V15H56.7926C56.0833 15 55.5513 14.8367 55.1966 14.51C54.842 14.1833 54.6646 13.6467 54.6646 12.9V8.378H53.6706V7.328H54.6646V5.396H55.9386V7.328H57.9406V8.378H55.9386Z" fill="black"/>
<line x1="77.4453" y1="4.85239" x2="71.4453" y2="16.6024" stroke="black"/>
<path d="M97.75 15H96.476L91.352 7.23V15H90.078V5.228H91.352L96.476 12.984V5.228H97.75V15ZM103.268 15.126C102.549 15.126 101.896 14.9627 101.308 14.636C100.729 14.3093 100.272 13.8473 99.9358 13.25C99.6091 12.6433 99.4458 11.9433 99.4458 11.15C99.4458 10.366 99.6138 9.67533 99.9498 9.078C100.295 8.47133 100.762 8.00933 101.35 7.692C101.938 7.36533 102.596 7.202 103.324 7.202C104.052 7.202 104.71 7.36533 105.298 7.692C105.886 8.00933 106.348 8.46667 106.684 9.064C107.029 9.66133 107.202 10.3567 107.202 11.15C107.202 11.9433 107.024 12.6433 106.67 13.25C106.324 13.8473 105.853 14.3093 105.256 14.636C104.658 14.9627 103.996 15.126 103.268 15.126ZM103.268 14.006C103.725 14.006 104.154 13.8987 104.556 13.684C104.957 13.4693 105.279 13.1473 105.522 12.718C105.774 12.2887 105.9 11.766 105.9 11.15C105.9 10.534 105.778 10.0113 105.536 9.582C105.293 9.15267 104.976 8.83533 104.584 8.63C104.192 8.41533 103.767 8.308 103.31 8.308C102.843 8.308 102.414 8.41533 102.022 8.63C101.639 8.83533 101.331 9.15267 101.098 9.582C100.864 10.0113 100.748 10.534 100.748 11.15C100.748 11.7753 100.86 12.3027 101.084 12.732C101.317 13.1613 101.625 13.4833 102.008 13.698C102.39 13.9033 102.81 14.006 103.268 14.006ZM110.431 8.378V12.9C110.431 13.2733 110.51 13.5393 110.669 13.698C110.827 13.8473 111.103 13.922 111.495 13.922H112.433V15H111.285C110.575 15 110.043 14.8367 109.689 14.51C109.334 14.1833 109.157 13.6467 109.157 12.9V8.378H108.163V7.328H109.157V5.396H110.431V7.328H112.433V8.378H110.431ZM117.784 7.188C118.363 7.188 118.886 7.314 119.352 7.566C119.819 7.80867 120.183 8.17733 120.444 8.672C120.715 9.16667 120.85 9.76867 120.85 10.478V15H119.59V10.66C119.59 9.89467 119.399 9.31133 119.016 8.91C118.634 8.49933 118.111 8.294 117.448 8.294C116.776 8.294 116.24 8.504 115.838 8.924C115.446 9.344 115.25 9.95533 115.25 10.758V15H113.976V4.64H115.25V8.42C115.502 8.028 115.848 7.72467 116.286 7.51C116.734 7.29533 117.234 7.188 117.784 7.188ZM123.59 6.082C123.347 6.082 123.142 5.998 122.974 5.83C122.806 5.662 122.722 5.45667 122.722 5.214C122.722 4.97133 122.806 4.766 122.974 4.598C123.142 4.43 123.347 4.346 123.59 4.346C123.823 4.346 124.019 4.43 124.178 4.598C124.346 4.766 124.43 4.97133 124.43 5.214C124.43 5.45667 124.346 5.662 124.178 5.83C124.019 5.998 123.823 6.082 123.59 6.082ZM124.206 7.328V15H122.932V7.328H124.206ZM130.115 7.188C131.048 7.188 131.804 7.47267 132.383 8.042C132.961 8.602 133.251 9.414 133.251 10.478V15H131.991V10.66C131.991 9.89467 131.799 9.31133 131.417 8.91C131.034 8.49933 130.511 8.294 129.849 8.294C129.177 8.294 128.64 8.504 128.239 8.924C127.847 9.344 127.651 9.95533 127.651 10.758V15H126.377V7.328H127.651V8.42C127.903 8.028 128.243 7.72467 128.673 7.51C129.111 7.29533 129.592 7.188 130.115 7.188ZM138.496 7.202C139.159 7.202 139.737 7.34667 140.232 7.636C140.736 7.92533 141.109 8.28933 141.352 8.728V7.328H142.64V15.168C142.64 15.868 142.491 16.4887 142.192 17.03C141.893 17.5807 141.464 18.01 140.904 18.318C140.353 18.626 139.709 18.78 138.972 18.78C137.964 18.78 137.124 18.542 136.452 18.066C135.78 17.59 135.383 16.9413 135.262 16.12H136.522C136.662 16.5867 136.951 16.96 137.39 17.24C137.829 17.5293 138.356 17.674 138.972 17.674C139.672 17.674 140.241 17.4547 140.68 17.016C141.128 16.5773 141.352 15.9613 141.352 15.168V13.558C141.1 14.006 140.727 14.3793 140.232 14.678C139.737 14.9767 139.159 15.126 138.496 15.126C137.815 15.126 137.194 14.958 136.634 14.622C136.083 14.286 135.649 13.8147 135.332 13.208C135.015 12.6013 134.856 11.9107 134.856 11.136C134.856 10.352 135.015 9.666 135.332 9.078C135.649 8.48067 136.083 8.01867 136.634 7.692C137.194 7.36533 137.815 7.202 138.496 7.202ZM141.352 11.15C141.352 10.5713 141.235 10.0673 141.002 9.638C140.769 9.20867 140.451 8.882 140.05 8.658C139.658 8.42467 139.224 8.308 138.748 8.308C138.272 8.308 137.838 8.42 137.446 8.644C137.054 8.868 136.741 9.19467 136.508 9.624C136.275 10.0533 136.158 10.5573 136.158 11.136C136.158 11.724 136.275 12.2373 136.508 12.676C136.741 13.1053 137.054 13.4367 137.446 13.67C137.838 13.894 138.272 14.006 138.748 14.006C139.224 14.006 139.658 13.894 140.05 13.67C140.451 13.4367 140.769 13.1053 141.002 12.676C141.235 12.2373 141.352 11.7287 141.352 11.15Z" fill="black"/>
<line x1="162.445" y1="4.85239" x2="156.445" y2="16.6024" stroke="black"/>
<path d="M182.75 15H181.476L176.352 7.23V15H175.078V5.228H176.352L181.476 12.984V5.228H182.75V15ZM188.268 15.126C187.549 15.126 186.896 14.9627 186.308 14.636C185.729 14.3093 185.272 13.8473 184.936 13.25C184.609 12.6433 184.446 11.9433 184.446 11.15C184.446 10.366 184.614 9.67533 184.95 9.078C185.295 8.47133 185.762 8.00933 186.35 7.692C186.938 7.36533 187.596 7.202 188.324 7.202C189.052 7.202 189.71 7.36533 190.298 7.692C190.886 8.00933 191.348 8.46667 191.684 9.064C192.029 9.66133 192.202 10.3567 192.202 11.15C192.202 11.9433 192.024 12.6433 191.67 13.25C191.324 13.8473 190.853 14.3093 190.256 14.636C189.658 14.9627 188.996 15.126 188.268 15.126ZM188.268 14.006C188.725 14.006 189.154 13.8987 189.556 13.684C189.957 13.4693 190.279 13.1473 190.522 12.718C190.774 12.2887 190.9 11.766 190.9 11.15C190.9 10.534 190.778 10.0113 190.536 9.582C190.293 9.15267 189.976 8.83533 189.584 8.63C189.192 8.41533 188.767 8.308 188.31 8.308C187.843 8.308 187.414 8.41533 187.022 8.63C186.639 8.83533 186.331 9.15267 186.098 9.582C185.864 10.0113 185.748 10.534 185.748 11.15C185.748 11.7753 185.86 12.3027 186.084 12.732C186.317 13.1613 186.625 13.4833 187.008 13.698C187.39 13.9033 187.81 14.006 188.268 14.006ZM195.431 8.378V12.9C195.431 13.2733 195.51 13.5393 195.669 13.698C195.827 13.8473 196.103 13.922 196.495 13.922H197.433V15H196.285C195.575 15 195.043 14.8367 194.689 14.51C194.334 14.1833 194.157 13.6467 194.157 12.9V8.378H193.163V7.328H194.157V5.396H195.431V7.328H197.433V8.378H195.431ZM202.784 7.188C203.363 7.188 203.886 7.314 204.352 7.566C204.819 7.80867 205.183 8.17733 205.444 8.672C205.715 9.16667 205.85 9.76867 205.85 10.478V15H204.59V10.66C204.59 9.89467 204.399 9.31133 204.016 8.91C203.634 8.49933 203.111 8.294 202.448 8.294C201.776 8.294 201.24 8.504 200.838 8.924C200.446 9.344 200.25 9.95533 200.25 10.758V15H198.976V4.64H200.25V8.42C200.502 8.028 200.848 7.72467 201.286 7.51C201.734 7.29533 202.234 7.188 202.784 7.188ZM208.59 6.082C208.347 6.082 208.142 5.998 207.974 5.83C207.806 5.662 207.722 5.45667 207.722 5.214C207.722 4.97133 207.806 4.766 207.974 4.598C208.142 4.43 208.347 4.346 208.59 4.346C208.823 4.346 209.019 4.43 209.178 4.598C209.346 4.766 209.43 4.97133 209.43 5.214C209.43 5.45667 209.346 5.662 209.178 5.83C209.019 5.998 208.823 6.082 208.59 6.082ZM209.206 7.328V15H207.932V7.328H209.206ZM215.115 7.188C216.048 7.188 216.804 7.47267 217.383 8.042C217.961 8.602 218.251 9.414 218.251 10.478V15H216.991V10.66C216.991 9.89467 216.799 9.31133 216.417 8.91C216.034 8.49933 215.511 8.294 214.849 8.294C214.177 8.294 213.64 8.504 213.239 8.924C212.847 9.344 212.651 9.95533 212.651 10.758V15H211.377V7.328H212.651V8.42C212.903 8.028 213.243 7.72467 213.673 7.51C214.111 7.29533 214.592 7.188 215.115 7.188ZM223.496 7.202C224.159 7.202 224.737 7.34667 225.232 7.636C225.736 7.92533 226.109 8.28933 226.352 8.728V7.328H227.64V15.168C227.64 15.868 227.491 16.4887 227.192 17.03C226.893 17.5807 226.464 18.01 225.904 18.318C225.353 18.626 224.709 18.78 223.972 18.78C222.964 18.78 222.124 18.542 221.452 18.066C220.78 17.59 220.383 16.9413 220.262 16.12H221.522C221.662 16.5867 221.951 16.96 222.39 17.24C222.829 17.5293 223.356 17.674 223.972 17.674C224.672 17.674 225.241 17.4547 225.68 17.016C226.128 16.5773 226.352 15.9613 226.352 15.168V13.558C226.1 14.006 225.727 14.3793 225.232 14.678C224.737 14.9767 224.159 15.126 223.496 15.126C222.815 15.126 222.194 14.958 221.634 14.622C221.083 14.286 220.649 13.8147 220.332 13.208C220.015 12.6013 219.856 11.9107 219.856 11.136C219.856 10.352 220.015 9.666 220.332 9.078C220.649 8.48067 221.083 8.01867 221.634 7.692C222.194 7.36533 222.815 7.202 223.496 7.202ZM226.352 11.15C226.352 10.5713 226.235 10.0673 226.002 9.638C225.769 9.20867 225.451 8.882 225.05 8.658C224.658 8.42467 224.224 8.308 223.748 8.308C223.272 8.308 222.838 8.42 222.446 8.644C222.054 8.868 221.741 9.19467 221.508 9.624C221.275 10.0533 221.158 10.5573 221.158 11.136C221.158 11.724 221.275 12.2373 221.508 12.676C221.741 13.1053 222.054 13.4367 222.446 13.67C222.838 13.894 223.272 14.006 223.748 14.006C224.224 14.006 224.658 13.894 225.05 13.67C225.451 13.4367 225.769 13.1053 226.002 12.676C226.235 12.2373 226.352 11.7287 226.352 11.15Z" fill="black"/>
<line x1="247.445" y1="4.85239" x2="241.445" y2="16.6024" stroke="black"/>
<path d="M267.75 15H266.476L261.352 7.23V15H260.078V5.228H261.352L266.476 12.984V5.228H267.75V15ZM273.268 15.126C272.549 15.126 271.896 14.9627 271.308 14.636C270.729 14.3093 270.272 13.8473 269.936 13.25C269.609 12.6433 269.446 11.9433 269.446 11.15C269.446 10.366 269.614 9.67533 269.95 9.078C270.295 8.47133 270.762 8.00933 271.35 7.692C271.938 7.36533 272.596 7.202 273.324 7.202C274.052 7.202 274.71 7.36533 275.298 7.692C275.886 8.00933 276.348 8.46667 276.684 9.064C277.029 9.66133 277.202 10.3567 277.202 11.15C277.202 11.9433 277.024 12.6433 276.67 13.25C276.324 13.8473 275.853 14.3093 275.256 14.636C274.658 14.9627 273.996 15.126 273.268 15.126ZM273.268 14.006C273.725 14.006 274.154 13.8987 274.556 13.684C274.957 13.4693 275.279 13.1473 275.522 12.718C275.774 12.2887 275.9 11.766 275.9 11.15C275.9 10.534 275.778 10.0113 275.536 9.582C275.293 9.15267 274.976 8.83533 274.584 8.63C274.192 8.41533 273.767 8.308 273.31 8.308C272.843 8.308 272.414 8.41533 272.022 8.63C271.639 8.83533 271.331 9.15267 271.098 9.582C270.864 10.0113 270.748 10.534 270.748 11.15C270.748 11.7753 270.86 12.3027 271.084 12.732C271.317 13.1613 271.625 13.4833 272.008 13.698C272.39 13.9033 272.81 14.006 273.268 14.006ZM280.431 8.378V12.9C280.431 13.2733 280.51 13.5393 280.669 13.698C280.827 13.8473 281.103 13.922 281.495 13.922H282.433V15H281.285C280.575 15 280.043 14.8367 279.689 14.51C279.334 14.1833 279.157 13.6467 279.157 12.9V8.378H278.163V7.328H279.157V5.396H280.431V7.328H282.433V8.378H280.431ZM287.784 7.188C288.363 7.188 288.886 7.314 289.352 7.566C289.819 7.80867 290.183 8.17733 290.444 8.672C290.715 9.16667 290.85 9.76867 290.85 10.478V15H289.59V10.66C289.59 9.89467 289.399 9.31133 289.016 8.91C288.634 8.49933 288.111 8.294 287.448 8.294C286.776 8.294 286.24 8.504 285.838 8.924C285.446 9.344 285.25 9.95533 285.25 10.758V15H283.976V4.64H285.25V8.42C285.502 8.028 285.848 7.72467 286.286 7.51C286.734 7.29533 287.234 7.188 287.784 7.188ZM293.59 6.082C293.347 6.082 293.142 5.998 292.974 5.83C292.806 5.662 292.722 5.45667 292.722 5.214C292.722 4.97133 292.806 4.766 292.974 4.598C293.142 4.43 293.347 4.346 293.59 4.346C293.823 4.346 294.019 4.43 294.178 4.598C294.346 4.766 294.43 4.97133 294.43 5.214C294.43 5.45667 294.346 5.662 294.178 5.83C294.019 5.998 293.823 6.082 293.59 6.082ZM294.206 7.328V15H292.932V7.328H294.206ZM300.115 7.188C301.048 7.188 301.804 7.47267 302.383 8.042C302.961 8.602 303.251 9.414 303.251 10.478V15H301.991V10.66C301.991 9.89467 301.799 9.31133 301.417 8.91C301.034 8.49933 300.511 8.294 299.849 8.294C299.177 8.294 298.64 8.504 298.239 8.924C297.847 9.344 297.651 9.95533 297.651 10.758V15H296.377V7.328H297.651V8.42C297.903 8.028 298.243 7.72467 298.673 7.51C299.111 7.29533 299.592 7.188 300.115 7.188ZM308.496 7.202C309.159 7.202 309.737 7.34667 310.232 7.636C310.736 7.92533 311.109 8.28933 311.352 8.728V7.328H312.64V15.168C312.64 15.868 312.491 16.4887 312.192 17.03C311.893 17.5807 311.464 18.01 310.904 18.318C310.353 18.626 309.709 18.78 308.972 18.78C307.964 18.78 307.124 18.542 306.452 18.066C305.78 17.59 305.383 16.9413 305.262 16.12H306.522C306.662 16.5867 306.951 16.96 307.39 17.24C307.829 17.5293 308.356 17.674 308.972 17.674C309.672 17.674 310.241 17.4547 310.68 17.016C311.128 16.5773 311.352 15.9613 311.352 15.168V13.558C311.1 14.006 310.727 14.3793 310.232 14.678C309.737 14.9767 309.159 15.126 308.496 15.126C307.815 15.126 307.194 14.958 306.634 14.622C306.083 14.286 305.649 13.8147 305.332 13.208C305.015 12.6013 304.856 11.9107 304.856 11.136C304.856 10.352 305.015 9.666 305.332 9.078C305.649 8.48067 306.083 8.01867 306.634 7.692C307.194 7.36533 307.815 7.202 308.496 7.202ZM311.352 11.15C311.352 10.5713 311.235 10.0673 311.002 9.638C310.769 9.20867 310.451 8.882 310.05 8.658C309.658 8.42467 309.224 8.308 308.748 8.308C308.272 8.308 307.838 8.42 307.446 8.644C307.054 8.868 306.741 9.19467 306.508 9.624C306.275 10.0533 306.158 10.5573 306.158 11.136C306.158 11.724 306.275 12.2373 306.508 12.676C306.741 13.1053 307.054 13.4367 307.446 13.67C307.838 13.894 308.272 14.006 308.748 14.006C309.224 14.006 309.658 13.894 310.05 13.67C310.451 13.4367 310.769 13.1053 311.002 12.676C311.235 12.2373 311.352 11.7287 311.352 11.15Z" fill="black"/>
<line x1="332.445" y1="4.85239" x2="326.445" y2="16.6024" stroke="black"/>
<path d="M352.75 15H351.476L346.352 7.23V15H345.078V5.228H346.352L351.476 12.984V5.228H352.75V15ZM358.268 15.126C357.549 15.126 356.896 14.9627 356.308 14.636C355.729 14.3093 355.272 13.8473 354.936 13.25C354.609 12.6433 354.446 11.9433 354.446 11.15C354.446 10.366 354.614 9.67533 354.95 9.078C355.295 8.47133 355.762 8.00933 356.35 7.692C356.938 7.36533 357.596 7.202 358.324 7.202C359.052 7.202 359.71 7.36533 360.298 7.692C360.886 8.00933 361.348 8.46667 361.684 9.064C362.029 9.66133 362.202 10.3567 362.202 11.15C362.202 11.9433 362.024 12.6433 361.67 13.25C361.324 13.8473 360.853 14.3093 360.256 14.636C359.658 14.9627 358.996 15.126 358.268 15.126ZM358.268 14.006C358.725 14.006 359.154 13.8987 359.556 13.684C359.957 13.4693 360.279 13.1473 360.522 12.718C360.774 12.2887 360.9 11.766 360.9 11.15C360.9 10.534 360.778 10.0113 360.536 9.582C360.293 9.15267 359.976 8.83533 359.584 8.63C359.192 8.41533 358.767 8.308 358.31 8.308C357.843 8.308 357.414 8.41533 357.022 8.63C356.639 8.83533 356.331 9.15267 356.098 9.582C355.864 10.0113 355.748 10.534 355.748 11.15C355.748 11.7753 355.86 12.3027 356.084 12.732C356.317 13.1613 356.625 13.4833 357.008 13.698C357.39 13.9033 357.81 14.006 358.268 14.006ZM365.431 8.378V12.9C365.431 13.2733 365.51 13.5393 365.669 13.698C365.827 13.8473 366.103 13.922 366.495 13.922H367.433V15H366.285C365.575 15 365.043 14.8367 364.689 14.51C364.334 14.1833 364.157 13.6467 364.157 12.9V8.378H363.163V7.328H364.157V5.396H365.431V7.328H367.433V8.378H365.431ZM372.784 7.188C373.363 7.188 373.886 7.314 374.352 7.566C374.819 7.80867 375.183 8.17733 375.444 8.672C375.715 9.16667 375.85 9.76867 375.85 10.478V15H374.59V10.66C374.59 9.89467 374.399 9.31133 374.016 8.91C373.634 8.49933 373.111 8.294 372.448 8.294C371.776 8.294 371.24 8.504 370.838 8.924C370.446 9.344 370.25 9.95533 370.25 10.758V15H368.976V4.64H370.25V8.42C370.502 8.028 370.848 7.72467 371.286 7.51C371.734 7.29533 372.234 7.188 372.784 7.188ZM378.59 6.082C378.347 6.082 378.142 5.998 377.974 5.83C377.806 5.662 377.722 5.45667 377.722 5.214C377.722 4.97133 377.806 4.766 377.974 4.598C378.142 4.43 378.347 4.346 378.59 4.346C378.823 4.346 379.019 4.43 379.178 4.598C379.346 4.766 379.43 4.97133 379.43 5.214C379.43 5.45667 379.346 5.662 379.178 5.83C379.019 5.998 378.823 6.082 378.59 6.082ZM379.206 7.328V15H377.932V7.328H379.206ZM385.115 7.188C386.048 7.188 386.804 7.47267 387.383 8.042C387.961 8.602 388.251 9.414 388.251 10.478V15H386.991V10.66C386.991 9.89467 386.799 9.31133 386.417 8.91C386.034 8.49933 385.511 8.294 384.849 8.294C384.177 8.294 383.64 8.504 383.239 8.924C382.847 9.344 382.651 9.95533 382.651 10.758V15H381.377V7.328H382.651V8.42C382.903 8.028 383.243 7.72467 383.673 7.51C384.111 7.29533 384.592 7.188 385.115 7.188ZM393.496 7.202C394.159 7.202 394.737 7.34667 395.232 7.636C395.736 7.92533 396.109 8.28933 396.352 8.728V7.328H397.64V15.168C397.64 15.868 397.491 16.4887 397.192 17.03C396.893 17.5807 396.464 18.01 395.904 18.318C395.353 18.626 394.709 18.78 393.972 18.78C392.964 18.78 392.124 18.542 391.452 18.066C390.78 17.59 390.383 16.9413 390.262 16.12H391.522C391.662 16.5867 391.951 16.96 392.39 17.24C392.829 17.5293 393.356 17.674 393.972 17.674C394.672 17.674 395.241 17.4547 395.68 17.016C396.128 16.5773 396.352 15.9613 396.352 15.168V13.558C396.1 14.006 395.727 14.3793 395.232 14.678C394.737 14.9767 394.159 15.126 393.496 15.126C392.815 15.126 392.194 14.958 391.634 14.622C391.083 14.286 390.649 13.8147 390.332 13.208C390.015 12.6013 389.856 11.9107 389.856 11.136C389.856 10.352 390.015 9.666 390.332 9.078C390.649 8.48067 391.083 8.01867 391.634 7.692C392.194 7.36533 392.815 7.202 393.496 7.202ZM396.352 11.15C396.352 10.5713 396.235 10.0673 396.002 9.638C395.769 9.20867 395.451 8.882 395.05 8.658C394.658 8.42467 394.224 8.308 393.748 8.308C393.272 8.308 392.838 8.42 392.446 8.644C392.054 8.868 391.741 9.19467 391.508 9.624C391.275 10.0533 391.158 10.5573 391.158 11.136C391.158 11.724 391.275 12.2373 391.508 12.676C391.741 13.1053 392.054 13.4367 392.446 13.67C392.838 13.894 393.272 14.006 393.748 14.006C394.224 14.006 394.658 13.894 395.05 13.67C395.451 13.4367 395.769 13.1053 396.002 12.676C396.235 12.2373 396.352 11.7287 396.352 11.15Z" fill="black"/>
</svg>
