<svg width="287" height="320" viewBox="0 0 287 320" fill="none" xmlns="http://www.w3.org/2000/svg">
<rect x="0.5" y="0.5" width="286" height="319" rx="4.5" stroke="#9747FF" stroke-dasharray="10 5"/>
<path opacity="0.3" d="M100 60C100 82.0914 82.0914 100 60 100C37.9086 100 20 82.0914 20 60C20 37.9086 37.9086 20 60 20C82.0914 20 100 37.9086 100 60ZM30.9071 60C30.9071 76.0675 43.9325 89.0929 60 89.0929C76.0675 89.0929 89.0929 76.0675 89.0929 60C89.0929 43.9325 76.0675 30.9071 60 30.9071C43.9325 30.9071 30.9071 43.9325 30.9071 60Z" fill="#2F2E30"/>
<circle cx="60" cy="60" r="29" fill="black"/>
<g clip-path="url(#clip0_120_1425)">
<path d="M51.6666 71.6667C53.5076 71.6667 55 70.1743 55 68.3333C55 66.4924 53.5076 65 51.6666 65C49.8257 65 48.3333 66.4924 48.3333 68.3333C48.3333 70.1743 49.8257 71.6667 51.6666 71.6667Z" stroke="#FAFAFA" stroke-width="2" stroke-linecap="round" stroke-linejoin="round"/>
<path d="M68.3333 71.6667C70.1743 71.6667 71.6667 70.1743 71.6667 68.3333C71.6667 66.4924 70.1743 65 68.3333 65C66.4924 65 65 66.4924 65 68.3333C65 70.1743 66.4924 71.6667 68.3333 71.6667Z" stroke="#FAFAFA" stroke-width="2" stroke-linecap="round" stroke-linejoin="round"/>
<path d="M48.3333 68.3335H47C45.8954 68.3335 45 67.4381 45 66.3335V61.6668M43.3333 48.3335H59.6666C60.7712 48.3335 61.6666 49.2289 61.6666 50.3335V68.3335M55 68.3335H65M71.6667 68.3335H73C74.1046 68.3335 75 67.4381 75 66.3335V58.3335M75 58.3335H61.6666M75 58.3335L70.5826 50.9712C70.2211 50.3688 69.5701 50.0002 68.8676 50.0002H61.6666" stroke="#FAFAFA" stroke-width="2" stroke-linecap="round" stroke-linejoin="round"/>
<path d="M48 68H46.6667C45.5621 68 44.6667 67.1046 44.6667 66V61.3333M43 48H59.3333C60.4379 48 61.3333 48.8954 61.3333 50V68M55 68H64.6667M72 68H72.6667C73.7712 68 74.6667 67.1046 74.6667 66V58M74.6667 58H61.3333M74.6667 58L70.2493 50.6377C69.8878 50.0353 69.2368 49.6667 68.5343 49.6667H61.3333" stroke="#FAFAFA" stroke-width="2" stroke-linecap="round" stroke-linejoin="round"/>
<path d="M45 51.8182H51.6667" stroke="#FAFAFA" stroke-width="2" stroke-linecap="round" stroke-linejoin="round"/>
<path d="M41.8182 55.4545H48.4848" stroke="#FAFAFA" stroke-width="2" stroke-linecap="round" stroke-linejoin="round"/>
<path d="M45 59.0909H51.6667" stroke="#FAFAFA" stroke-width="2" stroke-linecap="round" stroke-linejoin="round"/>
</g>
<path opacity="0.3" d="M100 160C100 182.091 82.0914 200 60 200C37.9086 200 20 182.091 20 160C20 137.909 37.9086 120 60 120C82.0914 120 100 137.909 100 160ZM30.9071 160C30.9071 176.068 43.9325 189.093 60 189.093C76.0675 189.093 89.0929 176.068 89.0929 160C89.0929 143.932 76.0675 130.907 60 130.907C43.9325 130.907 30.9071 143.932 30.9071 160Z" fill="#2F2E30"/>
<circle cx="60" cy="160" r="29" fill="black"/>
<path d="M50.4 173V156.75C50.4 154.164 51.4114 151.684 53.2118 149.856C55.0121 148.027 57.4539 147 60 147C62.5461 147 64.9879 148.027 66.7882 149.856C68.5886 151.684 69.6 154.164 69.6 156.75V173M44 162.543C44 159.207 47.2 158.375 50.4 158.375V173C48.7026 173 47.0747 172.315 45.8745 171.096C44.6743 169.877 44 168.224 44 166.5V162.543ZM76 162.543C76 159.207 72.8 158.375 69.6 158.375V173C71.2974 173 72.9252 172.315 74.1255 171.096C75.3257 169.877 76 168.224 76 166.5V162.543Z" stroke="#FAFAFA" stroke-width="2" stroke-linecap="round" stroke-linejoin="round"/>
<path opacity="0.3" d="M100 260C100 282.091 82.0914 300 60 300C37.9086 300 20 282.091 20 260C20 237.909 37.9086 220 60 220C82.0914 220 100 237.909 100 260ZM30.9071 260C30.9071 276.068 43.9325 289.093 60 289.093C76.0675 289.093 89.0929 276.068 89.0929 260C89.0929 243.932 76.0675 230.907 60 230.907C43.9325 230.907 30.9071 243.932 30.9071 260Z" fill="#2F2E30"/>
<circle cx="60" cy="260" r="29" fill="black"/>
<path d="M59.9831 242.587C61.0046 242.587 62.0041 242.737 62.7575 243.018L71.0749 246.135H71.0759C73.2954 246.962 75.0505 249.508 75.0505 251.867V264.25C75.0505 265.337 74.7063 266.59 74.1237 267.749C73.5777 268.835 72.8403 269.802 72.0309 270.456L71.8679 270.583L64.7009 275.932L64.695 275.937C63.4123 276.926 61.7237 277.433 59.9997 277.433C58.277 277.433 56.5846 276.926 55.2643 275.948H55.2634L48.0993 270.599C47.2266 269.949 46.4253 268.921 45.8425 267.759C45.2596 266.598 44.9167 265.345 44.9167 264.266V251.867C44.9167 249.508 46.6716 246.962 48.8913 246.135H48.8923L57.2087 243.018C57.9621 242.737 58.9615 242.588 59.9831 242.587ZM60.0007 244.086C59.2021 244.088 58.3752 244.195 57.7419 244.431L57.7409 244.432L49.4245 247.548H49.4235C48.596 247.86 47.8548 248.523 47.3239 249.291C46.7928 250.059 46.4333 250.99 46.4333 251.883V264.266C46.4333 265.161 46.7439 266.189 47.2009 267.101C47.6577 268.013 48.2931 268.873 49.0007 269.401L56.1677 274.751C57.2295 275.545 58.6281 275.925 60.0016 275.925C61.3755 275.925 62.7779 275.544 63.8474 274.752L63.8493 274.751L71.0153 269.401L71.0163 269.4C71.731 268.864 72.3666 268.005 72.822 267.094C73.2773 266.184 73.5837 265.16 73.5837 264.266V251.867C73.5837 250.981 73.2233 250.054 72.6931 249.287C72.1625 248.519 71.422 247.854 70.5974 247.534L70.5925 247.532L62.2751 244.415L62.2663 244.412C61.6282 244.187 60.8001 244.083 60.0007 244.086Z" fill="#FAFAFA" stroke="#FAFAFA"/>
<path d="M64.4039 254.77C64.692 254.482 65.1755 254.482 65.4635 254.77C65.7514 255.058 65.7513 255.541 65.4635 255.83L58.2965 262.997C58.1452 263.148 57.9574 263.216 57.7662 263.216C57.5752 263.216 57.3881 263.148 57.2369 262.997L54.5533 260.313C54.2655 260.025 54.2654 259.541 54.5533 259.253C54.8414 258.965 55.3248 258.966 55.6129 259.253L57.7662 261.407L58.1207 261.053L64.4039 254.77Z" fill="#FAFAFA" stroke="#FAFAFA"/>
<path opacity="0.3" d="M224 60C224 82.0914 206.091 100 184 100C161.909 100 144 82.0914 144 60C144 37.9086 161.909 20 184 20C206.091 20 224 37.9086 224 60ZM154.907 60C154.907 76.0675 167.932 89.0929 184 89.0929C200.068 89.0929 213.093 76.0675 213.093 60C213.093 43.9325 200.068 30.9071 184 30.9071C167.932 30.9071 154.907 43.9325 154.907 60Z" fill="#2F2E30"/>
<circle cx="184" cy="60" r="29" fill="black"/>
<defs>
<clipPath id="clip0_120_1425">
<rect width="40" height="40" fill="white" transform="translate(40 40)"/>
</clipPath>
</defs>
</svg>
